<svg width="46" height="47" viewBox="0 0 46 47" fill="none" xmlns="http://www.w3.org/2000/svg">
<g filter="url(#filter0_d_521_5044)">
<rect x="3" width="40" height="40" rx="6" fill="#FFB72C"/>
<path d="M30.5 17.2004C30.5 13.0541 27.1392 9.6875 23 9.6875C18.8608 9.6875 15.5 13.0541 15.5 17.2004C15.5 20.6024 17.8703 23.6501 21.125 24.5006L21.7618 26.2017C19.9929 26.308 17.0212 26.7332 17.0212 28.2216C17.0212 30.2416 22.3986 30.3125 23.0354 30.3125C23.6722 30.3125 29.0495 30.2416 29.0495 28.2216C29.0495 26.6978 26.0425 26.308 24.2736 26.2017L24.875 24.5361C28.1297 23.6856 30.5 20.6379 30.5 17.2004ZM25.441 17.2004C25.441 18.547 24.3443 19.6456 23 19.6456C21.6557 19.6456 20.559 18.547 20.559 17.2004C20.559 15.8537 21.6557 14.7552 23 14.7552C24.3443 14.7552 25.441 15.8537 25.441 17.2004ZM27.7759 28.2216C27.4222 28.576 25.6887 29.1076 23 29.1076C20.3467 29.1076 18.6132 28.576 18.2241 28.2216C18.5425 27.9027 19.9929 27.442 22.1863 27.3711L22.5755 28.3988C22.6462 28.576 22.7877 28.6823 23 28.6823C23.1769 28.6823 23.3538 28.576 23.4245 28.3988L23.7783 27.3711C26.0071 27.442 27.4222 27.9027 27.7759 28.2216Z" fill="white"/>
</g>
<defs>
<filter id="filter0_d_521_5044" x="0" y="0" width="46" height="47" filterUnits="userSpaceOnUse" color-interpolation-filters="sRGB">
<feFlood flood-opacity="0" result="BackgroundImageFix"/>
<feColorMatrix in="SourceAlpha" type="matrix" values="0 0 0 0 0 0 0 0 0 0 0 0 0 0 0 0 0 0 127 0" result="hardAlpha"/>
<feOffset dy="4"/>
<feGaussianBlur stdDeviation="1.5"/>
<feComposite in2="hardAlpha" operator="out"/>
<feColorMatrix type="matrix" values="0 0 0 0 0.0509804 0 0 0 0 0.0431373 0 0 0 0 0.0470588 0 0 0 0.2 0"/>
<feBlend mode="normal" in2="BackgroundImageFix" result="effect1_dropShadow_521_5044"/>
<feBlend mode="normal" in="SourceGraphic" in2="effect1_dropShadow_521_5044" result="shape"/>
</filter>
</defs>
</svg>
